%TF.GenerationSoftware,KiCad,Pcbnew,(6.0.9-0)*%
%TF.CreationDate,2022-12-22T12:47:34+01:00*%
%TF.ProjectId,jwst,6a777374-2e6b-4696-9361-645f70636258,rev?*%
%TF.SameCoordinates,Original*%
%TF.FileFunction,Profile,NP*%
%FSLAX46Y46*%
G04 Gerber Fmt 4.6, Leading zero omitted, Abs format (unit mm)*
G04 Created by KiCad (PCBNEW (6.0.9-0)) date 2022-12-22 12:47:34*
%MOMM*%
%LPD*%
G01*
G04 APERTURE LIST*
%TA.AperFunction,Profile*%
%ADD10C,0.084666*%
%TD*%
%TA.AperFunction,Profile*%
%ADD11C,0.100000*%
%TD*%
G04 APERTURE END LIST*
D10*
X47839971Y-46300053D02*
X47839971Y-46300053D01*
X60839945Y-32800039D02*
X60839945Y-32800039D01*
X55639970Y-32800039D02*
X55639970Y-32800039D01*
D11*
X66399210Y-27432000D02*
G75*
G03*
X66399210Y-27432000I-359210J0D01*
G01*
D10*
X60839945Y-68800048D02*
X60839945Y-68800048D01*
X68639946Y-73300000D02*
X71239973Y-68800048D01*
X55639970Y-32800039D02*
X53039942Y-37299989D01*
X84239946Y-64300019D02*
X86839978Y-59799985D01*
X64927397Y-26374432D02*
X63814791Y-28300006D01*
X68639946Y-28300006D02*
X68639946Y-28300006D01*
X86839978Y-41800020D02*
X86839978Y-41800020D01*
X84239946Y-55300036D02*
X84239946Y-55300036D01*
X47839971Y-64300019D02*
X47839971Y-64300019D01*
X86839978Y-50800002D02*
X86839978Y-50800002D01*
X63814791Y-28300006D02*
X63814791Y-28300006D01*
X60839945Y-68800048D02*
X63439972Y-73300000D01*
X76439946Y-32800039D02*
X76439946Y-32800039D01*
X84239946Y-46300053D02*
X84239946Y-46300053D01*
X63814791Y-28300006D02*
X63814791Y-28300006D01*
X84239946Y-55300036D02*
X86839978Y-50800002D01*
X47839971Y-64300019D02*
X53039942Y-64300019D01*
X71239973Y-68800048D02*
X71239973Y-68800048D01*
X53039942Y-37299989D02*
X47839971Y-37299989D01*
X76439946Y-68800048D02*
X76439946Y-68800048D01*
X63814791Y-28300006D02*
X63439972Y-28300006D01*
X68265127Y-28300006D02*
X67152519Y-26374432D01*
X45239942Y-50800002D02*
X45239942Y-50800002D01*
X86839978Y-59799985D02*
X86839978Y-59799985D01*
X79039975Y-64300019D02*
X84239946Y-64300019D01*
X71239973Y-32800039D02*
X68639946Y-28300006D01*
X63439972Y-28300006D02*
X63439972Y-28300006D01*
X79039975Y-64300019D02*
X79039975Y-64300019D01*
X47839971Y-46300053D02*
X45239942Y-50800002D01*
X45239942Y-41800020D02*
X47839971Y-46300053D01*
X79039975Y-37299989D02*
X79039975Y-37299989D01*
X55639970Y-68800048D02*
X55639970Y-68800048D01*
X86839978Y-59799985D02*
X84239946Y-55300036D01*
X68639946Y-73300000D02*
X68639946Y-73300000D01*
X76439946Y-32800039D02*
X71239973Y-32800039D01*
X68265127Y-28300006D02*
X68265127Y-28300006D01*
X60839945Y-32800039D02*
X55639970Y-32800039D01*
X79039975Y-37299989D02*
X76439946Y-32800039D01*
X53039942Y-64300019D02*
X55639970Y-68800048D01*
X47839971Y-37299989D02*
X47839971Y-37299989D01*
X84239946Y-46300053D02*
X86839978Y-41800020D01*
X67152519Y-26374432D02*
X67152519Y-26374432D01*
X84239946Y-37299989D02*
X79039975Y-37299989D01*
X47839971Y-55300036D02*
X47839971Y-55300036D01*
X45239942Y-41800020D02*
X45239942Y-41800020D01*
X67152519Y-26374432D02*
X64927397Y-26374432D01*
X86839978Y-50800002D02*
X84239946Y-46300053D01*
X45239942Y-50800002D02*
X47839971Y-55300036D01*
X45239942Y-59799985D02*
X47839971Y-64300019D01*
X63439972Y-28300006D02*
X60839945Y-32800039D01*
X53039942Y-64300019D02*
X53039942Y-64300019D01*
X64927397Y-26374432D02*
X64927397Y-26374432D01*
X86839978Y-41800020D02*
X84239946Y-37299989D01*
X63439972Y-73300000D02*
X63439972Y-73300000D01*
X84239946Y-37299989D02*
X84239946Y-37299989D01*
X84239946Y-64300019D02*
X84239946Y-64300019D01*
X63439972Y-73300000D02*
X68639946Y-73300000D01*
X47839971Y-37299989D02*
X45239942Y-41800020D01*
X53039942Y-37299989D02*
X53039942Y-37299989D01*
X55639970Y-68800048D02*
X60839945Y-68800048D01*
X45239942Y-59799985D02*
X45239942Y-59799985D01*
X76439946Y-68800048D02*
X79039975Y-64300019D01*
X71239973Y-32800039D02*
X71239973Y-32800039D01*
X47839971Y-55300036D02*
X45239942Y-59799985D01*
X71239973Y-68800048D02*
X76439946Y-68800048D01*
X68639946Y-28300006D02*
X68265127Y-28300006D01*
M02*
